Coordinates
version=1
nRows=16
nColumns=42
inDegrees=yes

Units are S.I. units (second, meters, Newtons, ...)
Angles are in degrees.

endheader
time	pelvis_tilt	pelvis_list	pelvis_rotation	pelvis_tx	pelvis_ty	pelvis_tz	hip_flexion_r	hip_adduction_r	hip_rotation_r	knee_angle_r	ankle_angle_r	subtalar_angle_r	mtp_angle_r	hip_flexion_l	hip_adduction_l	hip_rotation_l	knee_angle_l	ankle_angle_l	subtalar_angle_l	mtp_angle_l	lumbar_extension	lumbar_bending	lumbar_rotation	arm_flex_r	arm_add_r	arm_rot_r	elbow_flex_r	pro_sup_r	wrist_flex_r	wrist_dev_r	arm_flex_l	arm_add_l	arm_rot_l	elbow_flex_l	pro_sup_l	wrist_flex_l	wrist_dev_l	scapula_weld_r	clavicle_weld_r	scapula_weld_l	clavicle_weld_l
      2.04000000	    -10.00274253	     -5.22712181	      0.34354968	      1.17379832	      0.91141443	     -0.08174524	      8.30815549	      7.53268317	    -14.09932043	    -17.73713594	     15.80267806	      0.00000000	      0.00000000	     46.13562819	    -12.53362403	     -8.15883215	    -50.22029234	      8.12228770	      0.00000000	      0.00000000	      0.00000000	      0.00000000	      0.00000000	      0.00000000	    -11.28838803	      0.00000000	     75.27270697	     44.98284329	      0.00000000	      0.00000000	      0.00000000	    -11.28838803	      0.00000000	     75.27270697	     44.98284329	      0.00000000	      0.00000000	      0.00000000	      0.00000000	      0.00000000	      0.00000000
      2.05000000	     -9.98426479	     -5.50856070	     -0.09132753	      1.18636503	      0.90905678	     -0.08226374	      7.39727143	      7.84180092	    -13.74463268	    -17.76863499	     16.41029323	      0.00000000	      0.00000000	     46.84668895	    -12.58569603	     -8.03048247	    -47.65988669	      7.77977113	      0.00000000	      0.00000000	      0.00000000	      0.00000000	      0.00000000	      0.00000000	    -11.29182538	      0.00000000	     75.27221320	     44.98292947	      0.00000000	      0.00000000	      0.00000000	    -11.29182538	      0.00000000	     75.27221320	     44.98292947	      0.00000000	      0.00000000	      0.00000000	      0.00000000	      0.00000000	      0.00000000
      2.06000000	    -10.10723642	     -5.78917875	     -0.47824027	      1.19885815	      0.90647107	     -0.08286880	      6.65515475	      8.12046197	    -13.39834026	    -17.82840185	     16.95265822	      0.00000000	      0.00000000	     47.58781041	    -12.60216599	     -7.88794593	    -44.89899859	      7.44923470	      0.00000000	      0.00000000	      0.00000000	      0.00000000	      0.00000000	      0.00000000	    -11.29554497	      0.00000000	     75.27167935	     44.98302234	      0.00000000	      0.00000000	      0.00000000	    -11.29554497	      0.00000000	     75.27167935	     44.98302234	      0.00000000	      0.00000000	      0.00000000	      0.00000000	      0.00000000	      0.00000000
      2.07000000	    -10.41212199	     -6.02056254	     -0.87619220	      1.21125601	      0.90365446	     -0.08351423	      6.16523906	      8.31107514	    -13.05766095	    -18.00413959	     17.45574219	      0.00000000	      0.00000000	     48.36570157	    -12.58989068	     -7.83253855	    -41.92162962	      7.11657101	      0.00000000	      0.00000000	      0.00000000	      0.00000000	      0.00000000	      0.00000000	    -11.30242952	      0.00000000	     75.27069264	     44.98319311	      0.00000000	      0.00000000	      0.00000000	    -11.30242952	      0.00000000	     75.27069264	     44.98319311	      0.00000000	      0.00000000	      0.00000000	      0.00000000	      0.00000000	      0.00000000
      2.08000000	    -10.84209467	     -6.24983386	     -1.23336563	      1.22369549	      0.90067491	     -0.08422595	      5.81268048	      8.48070375	    -12.74712264	    -18.18637759	     17.89624548	      0.00000000	      0.00000000	     49.14088023	    -12.55424571	     -7.79849028	    -38.76862880	      6.82057726	      0.00000000	      0.00000000	      0.00000000	      0.00000000	      0.00000000	      0.00000000	    -11.30771902	      0.00000000	     75.26993570	     44.98332339	      0.00000000	      0.00000000	      0.00000000	    -11.30771902	      0.00000000	     75.26993570	     44.98332339	      0.00000000	      0.00000000	      0.00000000	      0.00000000	      0.00000000	      0.00000000
      2.09000000	    -11.45363668	     -6.40677045	     -1.59425352	      1.23612022	      0.89749461	     -0.08503265	      5.74059266	      8.54007768	    -12.45653681	    -18.54840332	     18.33343086	      0.00000000	      0.00000000	     49.94175643	    -12.45325787	     -7.84395867	    -35.43676913	      6.59699992	      0.00000000	      0.00000000	      0.00000000	      0.00000000	      0.00000000	      0.00000000	    -11.31730316	      0.00000000	     75.26856680	     44.98355733	      0.00000000	      0.00000000	      0.00000000	    -11.31730316	      0.00000000	     75.26856680	     44.98355733	      0.00000000	      0.00000000	      0.00000000	      0.00000000	      0.00000000	      0.00000000
      2.10000000	    -11.95434653	     -6.66007328	     -1.86331931	      1.24876435	      0.89444093	     -0.08594129	      5.48114022	      8.71543341	    -12.10190952	    -18.78676813	     18.60533954	      0.00000000	      0.00000000	     50.53010906	    -12.37012515	     -7.78194343	    -32.03889187	      6.48833593	      0.00000000	      0.00000000	      0.00000000	      0.00000000	      0.00000000	      0.00000000	    -11.31994835	      0.00000000	     75.26818961	     44.98362143	      0.00000000	      0.00000000	      0.00000000	    -11.31994835	      0.00000000	     75.26818961	     44.98362143	      0.00000000	      0.00000000	      0.00000000	      0.00000000	      0.00000000	      0.00000000
      2.11000000	    -12.84386002	     -6.56105526	     -2.30155021	      1.26156073	      0.89105363	     -0.08692058	      5.85667422	      8.42540909	    -11.93631543	    -19.49717275	     19.03862989	      0.00000000	      0.00000000	     51.23553885	    -12.14725870	     -8.26632447	    -28.46080387	      6.17860293	      0.00000000	      0.00000000	      0.00000000	      0.00000000	      0.00000000	      0.00000000	    -11.32971348	      0.00000000	     75.26679928	     44.98385630	      0.00000000	      0.00000000	      0.00000000	    -11.32971348	      0.00000000	     75.26679928	     44.98385630	      0.00000000	      0.00000000	      0.00000000	      0.00000000	      0.00000000	      0.00000000
      2.12000000	    -13.49265955	     -6.63443930	     -2.66216991	      1.27470448	      0.88792525	     -0.08799097	      5.92638634	      8.32945225	    -11.68336700	    -20.15358599	     19.21644123	      0.00000000	      0.00000000	     51.64858849	    -12.02336693	     -8.57871068	    -25.01475249	      5.95330006	      0.00000000	      0.00000000	      0.00000000	      0.00000000	      0.00000000	      0.00000000	    -11.33714793	      0.00000000	     75.26574315	     44.98403327	      0.00000000	      0.00000000	      0.00000000	    -11.33714793	      0.00000000	     75.26574315	     44.98403327	      0.00000000	      0.00000000	      0.00000000	      0.00000000	      0.00000000	      0.00000000
      2.13000000	    -14.15406547	     -6.66197797	     -3.01023148	      1.28827834	      0.88480553	     -0.08914366	      5.99676617	      8.16920661	    -11.44663220	    -20.81959751	     19.33815529	      0.00000000	      0.00000000	     51.99732109	    -11.88266113	     -9.02691640	    -21.78367913	      5.72753721	      0.00000000	      0.00000000	      0.00000000	      0.00000000	      0.00000000	      0.00000000	    -11.34271058	      0.00000000	     75.26495426	     44.98416467	      0.00000000	      0.00000000	      0.00000000	    -11.34271058	      0.00000000	     75.26495426	     44.98416467	      0.00000000	      0.00000000	      0.00000000	      0.00000000	      0.00000000	      0.00000000
      2.14000000	    -14.75680432	     -6.66707920	     -3.38874407	      1.30225069	      0.88176001	     -0.09032033	      6.03827548	      7.95487209	    -11.22796511	    -21.60256435	     19.38662720	      0.00000000	      0.00000000	     52.28307624	    -11.79151107	     -9.59893285	    -19.00451382	      5.53718666	      0.00000000	      0.00000000	      0.00000000	      0.00000000	      0.00000000	      0.00000000	    -11.34913363	      0.00000000	     75.26404482	     44.98431524	      0.00000000	      0.00000000	      0.00000000	    -11.34913363	      0.00000000	     75.26404482	     44.98431524	      0.00000000	      0.00000000	      0.00000000	      0.00000000	      0.00000000	      0.00000000
      2.15000000	    -15.22936508	     -6.76517865	     -3.72931434	      1.31678810	      0.87888471	     -0.09146002	      5.85683680	      7.84658916	    -10.95702862	    -22.26058381	     19.22076031	      0.00000000	      0.00000000	     52.55565678	    -11.80593769	    -10.12988465	    -16.94645625	      5.49045434	      0.00000000	      0.00000000	      0.00000000	      0.00000000	      0.00000000	      0.00000000	    -11.35290467	      0.00000000	     75.26351159	     44.98440310	      0.00000000	      0.00000000	      0.00000000	    -11.35290467	      0.00000000	     75.26351159	     44.98440310	      0.00000000	      0.00000000	      0.00000000	      0.00000000	      0.00000000	      0.00000000
      2.16000000	    -15.60710377	     -6.76269063	     -4.10872101	      1.33191321	      0.87619045	     -0.09253736	      5.59558913	      7.59329998	    -10.71328738	    -23.01329943	     18.98279460	      0.00000000	      0.00000000	     52.86818513	    -11.87917561	    -10.94537556	    -15.78014627	      5.48410865	      0.00000000	      0.00000000	      0.00000000	      0.00000000	      0.00000000	      0.00000000	    -11.35857654	      0.00000000	     75.26271056	     44.98453451	      0.00000000	      0.00000000	      0.00000000	    -11.35857654	      0.00000000	     75.26271056	     44.98453451	      0.00000000	      0.00000000	      0.00000000	      0.00000000	      0.00000000	      0.00000000
      2.17000000	    -15.77690919	     -6.85464917	     -4.40978267	      1.34768507	      0.87376045	     -0.09351870	      5.02214202	      7.43064215	    -10.48388795	    -23.63655366	     18.49940267	      0.00000000	      0.00000000	     53.24927478	    -12.07211333	    -11.58027936	    -15.73196911	      5.70891936	      0.00000000	      0.00000000	      0.00000000	      0.00000000	      0.00000000	      0.00000000	    -11.36180902	      0.00000000	     75.26225460	     44.98460898	      0.00000000	      0.00000000	      0.00000000	    -11.36180902	      0.00000000	     75.26225460	     44.98460898	      0.00000000	      0.00000000	      0.00000000	      0.00000000	      0.00000000	      0.00000000
      2.18000000	    -15.79425620	     -6.91720074	     -4.75003027	      1.36413079	      0.87164061	     -0.09427685	      4.24899607	      7.23781725	    -10.11842082	    -24.21772165	     17.86317063	      0.00000000	      0.00000000	     53.68205706	    -12.40297805	    -12.21795591	    -16.72309528	      6.03617253	      0.00000000	      0.00000000	      0.00000000	      0.00000000	      0.00000000	      0.00000000	    -11.36691769	      0.00000000	     75.26153472	     44.98472611	      0.00000000	      0.00000000	      0.00000000	    -11.36691769	      0.00000000	     75.26153472	     44.98472611	      0.00000000	      0.00000000	      0.00000000	      0.00000000	      0.00000000	      0.00000000
      2.19000000	    -15.61209670	     -6.93924132	     -5.01288413	      1.38127298	      0.86980983	     -0.09505165	      3.26103123	      6.94673440	     -9.88965578	    -24.81372467	     17.00997940	      0.00000000	      0.00000000	     54.06978842	    -12.73621436	    -12.66299819	    -18.56155126	      6.32672029	      0.00000000	      0.00000000	      0.00000000	      0.00000000	      0.00000000	      0.00000000	    -11.37044101	      0.00000000	     75.26103883	     44.98480646	      0.00000000	      0.00000000	      0.00000000	    -11.37044101	      0.00000000	     75.26103883	     44.98480646	      0.00000000	      0.00000000	      0.00000000	      0.00000000	      0.00000000	      0.00000000
